<?xml version="1.0" standalone="no"?>
<!DOCTYPE svg PUBLIC "-//W3C//DTD SVG 20010904//EN"
 "http://www.w3.org/TR/2001/REC-SVG-20010904/DTD/svg10.dtd">
<svg version="1.0" xmlns="http://www.w3.org/2000/svg"
 width="282.000000pt" height="282.000000pt" viewBox="0 0 282.000000 282.000000"
 preserveAspectRatio="xMidYMid meet">
<metadata>
Created by potrace 1.11, written by Peter Selinger 2001-2013
</metadata>
<g transform="translate(0.000000,282.000000) scale(0.100000,-0.100000)"
fill="#000000" stroke="none">
<path d="M1323 2813 c-51 -4 -60 -11 -54 -45 0 -5 -3 -8 -7 -8 -7 0 -11 -19
-13 -72 0 -10 -4 -20 -8 -23 -5 -2 -7 -16 -6 -30 2 -14 -1 -25 -6 -25 -6 0 -8
-4 -5 -8 3 -5 -20 -14 -52 -21 -31 -7 -86 -22 -121 -33 -77 -25 -84 -22 -165
74 -42 50 -63 68 -75 63 -9 -3 -62 -33 -117 -67 l-102 -60 35 -105 35 -104
-95 -94 c-90 -89 -102 -96 -137 -82 -30 13 -163 57 -165 54 -19 -24 -82 -131
-104 -174 l-29 -58 83 -73 84 -73 -18 -52 c-10 -29 -26 -87 -35 -129 -10 -43
-20 -79 -24 -80 -4 0 -18 -3 -32 -4 -14 -2 -60 -11 -102 -20 l-78 -17 0 -132
c0 -141 1 -145 51 -145 10 0 19 -5 19 -10 0 -7 6 -7 20 0 12 6 20 7 20 1 0 -5
22 -12 50 -16 27 -4 53 -11 56 -16 3 -6 14 -44 24 -87 10 -42 26 -96 34 -119
l15 -42 -82 -75 -82 -75 48 -93 c26 -51 56 -104 67 -118 l19 -25 95 33 c52 17
99 32 104 32 5 0 51 -41 101 -92 l92 -91 -35 -103 -34 -103 61 -40 c34 -21 87
-52 118 -67 l56 -27 39 44 c22 24 55 60 75 81 l36 37 79 -24 c43 -13 98 -27
122 -31 46 -7 54 -14 58 -53 1 -14 3 -27 4 -28 1 -2 4 -12 5 -23 1 -11 3 -21
5 -22 2 -4 10 -46 13 -73 1 -11 7 -23 12 -27 6 -4 64 -8 130 -8 66 0 125 4
130 8 6 4 11 18 13 32 3 33 9 65 11 65 4 0 13 58 12 78 0 9 5 17 10 17 6 0 8
4 4 10 -3 5 14 14 37 20 24 5 81 21 128 34 l85 23 63 -66 c35 -36 67 -73 72
-81 7 -13 17 -11 67 13 32 16 86 47 120 68 l61 40 -34 102 -34 102 93 95 92
95 90 -32 c50 -17 97 -32 105 -32 17 -1 73 83 117 173 l28 58 -82 77 c-75 70
-81 78 -71 101 5 14 21 68 34 120 14 52 28 97 32 101 4 3 45 13 92 23 47 9 93
19 103 22 15 5 17 20 17 138 l0 133 -77 17 c-43 9 -91 18 -107 21 -16 2 -31 6
-33 9 -3 2 -13 40 -23 83 -9 43 -24 99 -33 125 l-15 47 83 73 83 73 -30 59
c-16 33 -46 84 -66 115 -20 31 -37 57 -37 58 -1 2 -48 -13 -104 -32 l-103 -34
-95 94 -95 94 35 104 34 103 -36 24 c-20 13 -71 43 -115 67 l-78 44 -49 -48
c-26 -26 -46 -49 -44 -51 6 -6 -57 -62 -70 -62 -7 0 -32 7 -56 15 -24 9 -74
23 -111 31 -74 17 -79 21 -85 68 -5 41 -9 58 -17 76 -3 8 -8 30 -10 48 -2 18
-5 34 -7 36 -7 6 -164 13 -216 9z"/>
</g>
</svg>
